<svg version="1.1" xmlns="http://www.w3.org/2000/svg" style="display: block;" viewBox="400 343 1260 1360" width="1024" height="1024" preserveAspectRatio="none">
<defs>
<linearGradient id="logoGradient" x1="0%" y1="100%" x2="100%" y2="0%">
<stop offset="0%" style="stop-color:#230885;stop-opacity:1" />
<stop offset="50%" style="stop-color:#3b25c2;stop-opacity:1" />
<stop offset="100%" style="stop-color:#6b70fd;stop-opacity:1" />
</linearGradient>
</defs>
<path transform="translate(0,0)" fill="url(#logoGradient)" d="M 1008.1 343.486 C 1078.25 342.635 1144.43 343.626 1213.6 358.504 C 1358.58 389.684 1492.04 470.559 1573.36 596.671 C 1594.23 629.047 1650.52 740.759 1642.51 777.618 C 1626.88 783.572 1608.53 785.738 1592.13 788.968 C 1561.49 795.068 1530.79 800.911 1500.04 806.494 L 1286.63 847.415 C 1279.48 833.993 1275.73 818.222 1269.6 804.222 C 1248.47 755.948 1214.43 713.295 1168.36 686.838 C 1112.31 654.649 1040.8 647.811 978.812 664.99 C 918.84 681.611 870.597 720.04 840.04 774.193 C 796.909 850.632 788.307 935.033 788.757 1021.35 C 789.04 1075.87 792.914 1127.67 807.724 1180.33 C 826.665 1247.68 867.188 1306.78 928.993 1341.27 C 985.37 1372.74 1056.55 1377.32 1117.94 1359.59 C 1187.79 1339.42 1239.65 1283.76 1268.69 1218.82 C 1276.01 1202.44 1280.39 1181.28 1288.81 1166.33 C 1289 1166 1289.2 1165.67 1289.4 1165.33 C 1311.64 1172.33 1335.12 1176.56 1357.83 1181.86 C 1404.92 1192.52 1451.9 1203.66 1498.77 1215.28 C 1516.49 1217.51 1535.19 1223.75 1552.7 1227.76 C 1584.53 1235.06 1623.53 1241.86 1653.8 1252.7 C 1637.35 1344.07 1590.76 1436.08 1529.8 1505.87 C 1416.28 1635.83 1263.63 1690.13 1095.01 1701.5 C 1053.92 1704.26 1008.03 1702.07 967.084 1697.58 C 836.32 1683.23 716.378 1640.49 616.31 1553.07 C 495.715 1447.72 430.982 1309.52 408.624 1152.41 C 404.287 1121.94 402.922 1090.59 400.936 1059.87 C 398.838 1027.42 399.907 994.107 401.993 961.694 C 403.465 938.818 404.616 915.836 407.933 893.136 C 425.906 770.147 476.938 643.121 559.567 549.221 C 680.995 411.23 827.892 355.125 1008.1 343.486 z"/>
<path transform="translate(0,0)" fill="rgb(255,255,255)" d="M 813.862 1420.73 C 818.023 1421.57 823.011 1422.78 826.035 1426.03 C 827.691 1427.81 828.828 1429.95 828.539 1432.44 C 827.705 1439.62 797.424 1485.05 790.937 1492.67 C 789.265 1494.64 787.226 1496.22 785.142 1497.72 C 781.493 1497.47 778.244 1496.73 775.352 1494.39 C 772.696 1492.24 771.336 1489.42 771.355 1485.98 C 771.385 1480.7 808.245 1425.36 813.862 1420.73 z"/>
<path transform="translate(0,0)" fill="rgb(255,255,255)" d="M 1494.85 712.822 C 1496.43 712.996 1498.09 713.165 1499.61 713.625 C 1502.39 714.462 1504.99 716.612 1506.32 719.2 C 1507.48 721.467 1507.55 723.137 1506.77 725.553 C 1505.58 729.255 1502.06 732.473 1499.03 734.698 C 1486.54 743.873 1455.64 757.918 1440.52 766.176 C 1439.39 766.242 1439.25 766.309 1437.97 766.046 C 1434.94 765.423 1430.17 762.582 1428.8 759.726 C 1427.72 757.477 1427.64 753.612 1428.5 751.269 C 1431.33 743.491 1484.13 718.052 1494.85 712.822 z"/>
<path transform="translate(0,0)" fill="rgb(255,255,255)" d="M 1433.99 1266.77 C 1436.4 1266.76 1438.7 1266.79 1441.02 1267.6 C 1451.63 1271.28 1490.1 1292.61 1499.36 1299.3 C 1502.21 1301.36 1505.08 1303.53 1505.29 1307.35 C 1505.59 1312.72 1502.04 1316.43 1498.44 1319.87 C 1497.22 1319.98 1496.82 1320.05 1495.7 1320.02 C 1489.74 1319.87 1433.75 1289.28 1428.83 1283.97 C 1427.19 1282.19 1426.45 1279.19 1426.83 1276.76 C 1427.52 1272.34 1430.81 1269.54 1433.99 1266.77 z"/>
<path transform="translate(0,0)" fill="rgb(255,255,255)" d="M 1304.88 522.801 C 1309.12 523.007 1313.97 524.005 1317.14 527.04 C 1319.04 528.85 1319.57 530.896 1319.36 533.439 C 1318.56 543.137 1285.28 594.864 1276.74 601.365 C 1269.41 599.772 1267.17 596.963 1262.68 591.281 C 1266.48 579.066 1295.25 531.745 1304.88 522.801 z"/>
<path transform="translate(0,0)" fill="rgb(255,255,255)" d="M 536.943 1004.14 C 550.403 1003.6 564.005 1003.9 577.481 1003.83 C 586.16 1003.79 595.826 1002.9 604.38 1004.28 C 607.53 1004.78 611.631 1005.93 614.03 1008.17 C 615.675 1009.7 617.06 1011.77 616.817 1014.15 C 616.37 1018.52 612.882 1022.89 609.648 1025.59 C 589.115 1027.89 559.23 1026.03 537.697 1025.99 C 536.399 1024.89 535.094 1023.79 533.938 1022.53 C 531.794 1020.21 530.148 1016.73 530.615 1013.48 C 531.302 1008.72 533.35 1006.97 536.943 1004.14 z"/>
<path transform="translate(0,0)" fill="rgb(255,255,255)" d="M 1040.14 459.927 C 1042.03 459.959 1044.13 459.884 1045.99 460.23 C 1048.68 460.732 1050.75 462.039 1052.25 464.369 C 1055.21 468.953 1055.02 530.249 1053.49 538.353 C 1052.58 543.146 1048.97 545.152 1045.15 547.447 C 1041.34 546.533 1037.1 545.741 1034.56 542.417 C 1031.28 538.132 1031.31 473.063 1033.16 465.867 C 1033.87 463.09 1037.84 461.334 1040.14 459.927 z"/>
<path transform="translate(0,0)" fill="rgb(255,255,255)" d="M 1042.49 1482.99 C 1046.39 1483.81 1049.33 1484.82 1052.12 1487.74 C 1054.82 1494.93 1055.31 1553.43 1053.09 1561.34 C 1051.81 1565.89 1048.35 1567.33 1044.51 1569.5 C 1044.18 1569.46 1043.84 1569.44 1043.5 1569.39 C 1040 1568.87 1035.55 1567.59 1033.72 1564.18 C 1030.82 1558.76 1030.96 1495.39 1033.65 1488.15 C 1036.2 1485.33 1039.02 1484.37 1042.49 1482.99 z"/>
<path transform="translate(0,0)" fill="rgb(255,255,255)" d="M 659.134 1252.99 C 660.292 1252.94 661.835 1252.77 663.001 1253.02 C 665.984 1253.64 667.675 1254.84 669.301 1257.39 C 671.099 1260.22 671.72 1264.31 670.627 1267.48 C 669.536 1270.64 666.778 1272.62 664.144 1274.43 C 656.461 1279.72 647.272 1283.65 638.99 1288.02 C 627.613 1294.06 616.389 1300.38 605.328 1306.97 C 601.642 1306.07 596.81 1303.97 594.762 1300.6 C 593.418 1298.39 593.537 1296.05 594.305 1293.68 C 597.962 1282.4 646.71 1259.01 659.134 1252.99 z"/>
<path transform="translate(0,0)" fill="rgb(255,255,255)" d="M 1276.34 1426.86 C 1278.9 1427.39 1280.99 1427.83 1283.13 1429.48 C 1289.81 1434.64 1318.66 1485.04 1320.09 1493.9 C 1318.66 1499.27 1314.79 1501.22 1310.39 1504.04 C 1309.19 1503.8 1308 1503.56 1306.83 1503.23 C 1304.61 1502.6 1302.92 1501.57 1301.42 1499.84 C 1296.22 1493.82 1292.31 1484.99 1288.17 1478.12 C 1281.76 1467.48 1274.61 1457.08 1268.86 1446.07 C 1267.02 1442.55 1264.82 1438.73 1266.57 1434.73 C 1268.34 1430.67 1272.61 1428.7 1276.34 1426.86 z"/>
<path transform="translate(0,0)" fill="rgb(255,255,255)" d="M 606.042 731.832 C 617.187 735.087 659.425 758.068 668.27 765.719 C 671.353 768.386 673.555 770.887 673.776 775.093 C 672.114 780.723 668.678 782.685 663.74 785.475 C 657.06 784.837 601.658 753.674 597.932 747.848 C 596.587 745.747 596.13 743.125 596.912 740.72 C 598.285 736.499 602.483 733.996 606.042 731.832 z"/>
<path transform="translate(0,0)" fill="rgb(255,255,255)" d="M 786.333 533.916 C 788.424 533.893 790.425 533.939 792.414 534.683 C 800.032 537.531 830.056 588.441 834.178 598.289 C 831.225 602.754 828.356 605.739 824.003 608.882 L 819.633 608.674 C 817.255 607.328 815.739 605.883 814.093 603.689 C 808.908 596.776 776.821 547.626 778.108 541.938 C 779.029 537.866 783.04 535.868 786.333 533.916 z"/>
</svg>