<?xml version="1.0" encoding="UTF-8"?>
<svg id="Layer_2" xmlns="http://www.w3.org/2000/svg" version="1.1" viewBox="0 0 1208.63 468.14">
  <!-- Generator: Adobe Illustrator 30.0.0, SVG Export Plug-In . SVG Version: 2.1.1 Build 123)  -->
  <defs>
    <style>
      .st0 {
        fill: #9091ff;
      }

      .st1 {
        fill: #d41900;
      }
    </style>
  </defs>
  <g>
    <path class="st0" d="M474.59,230.35h42v210h-42v-118.5h-36v118.5h-42v-210h42v52.5h36v-52.5Z"/>
    <path class="st0" d="M614.68,440.35l-25.8-45.9c-1.2,0-2.1.3-3.3.3v45.6h-42v-210h27.9c50.1,0,86.1,31.8,86.1,83.1,0,27.9-11.4,50.7-30.3,65.1l34.8,61.8h-47.4ZM585.58,271.45v84.3c15.6-3,27-19.5,27-42.3s-11.4-39.3-27-42Z"/>
    <path class="st0" d="M674.08,335.35c0-62.7,44.7-108,106.5-108s106.5,45.3,106.5,108-45,108-106.5,108-106.5-45.6-106.5-108ZM842.08,335.35c0-39.9-24.9-67.5-61.5-67.5s-61.5,27.6-61.5,67.5,24.9,67.5,61.5,67.5,61.5-27.6,61.5-67.5Z"/>
    <path class="st0" d="M987.58,230.35h42v210h-42v-108l-36-27.9v135.9h-42v-213h4.5l73.5,55.5v-52.5Z"/>
    <path class="st0" d="M1059.58,440.35v-210h40.5v210h-40.5Z"/>
    <path class="st0" d="M1133.07,440.35v-210h40.5v210h-40.5Z"/>
  </g>
  <path class="st0" d="M35.06,250.06c0-115.87,75.8-194.92,200.33-194.92,29.24,0,54.14,3.79,76.88,9.2v63.35c-22.2-7.04-46.02-10.29-70.39-10.29-85.55,0-140.23,51.44-140.23,132.65s54.69,132.65,140.23,132.65c24.37,0,48.19-3.25,70.39-10.29v62.81c-22.74,5.96-47.65,9.75-76.88,9.75-124.53,0-200.33-79.05-200.33-194.92Z"/>
  <path class="st1" d="M380.74,370.2l-113.52-110.03c1.24-5.68,1.01-11.53-.57-17.02l81.61-81.61-23.13-23.13-81.29,81.29c-6.23-1.98-12.79-2.12-18.95-.57l-21.14-20.49-22.77,23.49,19.68,19.08c-2.55,7.22-2.59,14.96-.35,22.03l-19.33,19.33,23.13,23.13,19.64-19.64c7.37,2.13,15.17,1.71,22.16-1l112.07,108.63,22.77-23.49Z"/>
</svg>